<svg width="396" height="113.449" viewBox="0 0 370 106" xmlns="http://www.w3.org/2000/svg">
  <path fill="#68e1fd" d="M0 101h370v5H0z"/>
  <g xmlns="http://www.w3.org/2000/svg" fill="#68e1fd">
    <path d="M0 24v6.035h12.07v18.103h36.206V30.035h12.07V24zm0 45.26c0 8.447 6.638 15.085 15.087 15.085h45.258v-6.034H15.087c-5.13 0-9.052-3.923-9.052-9.052s3.922-9.052 9.052-9.052h45.258v-6.034H15.087C6.638 54.173 0 60.81 0 69.259"/>
    <path d="M12.07 66.242h45.258v6.034H12.069zM0 33.052h6.035v15.086H0z"/>
  </g>
  <path d="M80 18.699h25.284v9.988h-4.773v-5.96H87.916v11.292H98.51v4.004H87.916V49.99h12.595v-5.96h4.773v9.966H80V49.99h3.352V22.727H80zm29.94 0h13.132q2.421 0 4.61.628t4.074 1.77 3.423 2.736 2.62 3.55 1.664 4.203.583 4.668q0 2.468-.583 4.725t-1.664 4.238-2.62 3.598-3.422 2.77-4.075 1.781-4.61.628H109.94V49.99h3.354V22.727h-3.354zm7.916 4.028V49.99h5.495q2.445 0 4.599-1.07t3.76-2.923 2.536-4.352.931-5.39q0-2.84-.93-5.31t-2.54-4.294-3.758-2.875-4.6-1.05zm26.473-4.028h11.432v4.028h-3.61v16.437q0 2.956.664 5.04t1.84 3.4 2.794 1.92 3.55.606q2.002 0 3.678-.537t2.876-1.803 1.863-3.376.663-5.25V22.725h-3.819V18.7h11.432v4.028h-3.142V38.65q0 3.819-1.059 6.776t-2.899 4.959-4.33 3.039-5.355 1.035q-2.794 0-5.227-1.025t-4.237-3.004-2.84-4.83-1.038-6.53V22.727h-3.235zm61.838 9.312q-1.56-2.655-4.133-4.167t-5.738-1.514q-2.702 0-4.936 1.14t-3.83 3.063-2.48 4.446-.885 5.32q0 3.307.978 5.856t2.55 4.238 3.737 2.816 4.866 1.13q3.678 0 6.402-1.782t4.656-5.855l4.099 1.932q-.885 2.516-3.004 4.856t-5.228 3.771-6.879 1.432q-3.608 0-6.635-1.363t-5.39-3.876-3.609-5.96-1.245-7.195q0-3.771 1.245-7.123t3.493-5.833 5.355-3.911 6.74-1.432q3.236 0 5.587.92t3.993 2.188 2.829 2.758h2.468v4.145zm30.966 21.98h2.933l-2.793-8.011h-13.574l-2.724 8.01h3.632v4.004h-11.456V49.99h3.073l10.991-31.291h6.867l10.966 31.291h3.54v4.005h-11.456zm-12.108-11.875h10.896l-5.494-15.785zm30.058 11.873h3.237V22.52h-8.056v5.493h-4.773V18.7h31.477v9.312h-4.773v-5.495h-9.312V49.99h3.632v4.003h-11.432zm26.17-31.29h11.268v4.028h-3.352v27.262h3.352v4.005h-11.268V49.99h3.353V22.727h-3.353zm33.2 35.994q-3.655 0-6.682-1.363t-5.402-3.876-3.609-5.96-1.233-7.148q0-3.818 1.245-7.17t3.493-5.833 5.355-3.911T314.453 18q3.749 0 6.868 1.43t5.355 3.913 3.469 5.833 1.234 7.17-1.245 7.16-3.493 5.832-5.354 3.922-6.834 1.433m0-4.33q2.77 0 5.018-1.142t3.83-3.06 2.443-4.46.863-5.355q0-2.887-.943-5.575t-2.631-4.553-3.923-2.875-4.657-1.013q-2.77 0-5.03 1.14t-3.84 3.063-2.445 4.47-.862 5.343q0 3.26.955 5.809t2.527 4.238 3.748 2.828 4.947 1.141M358.2 18.698h11.455v4.028h-3.004v31.267h-5.96l-16.415-29.266v25.26h3.632v4.006h-11.455V49.99h3.26V22.727h-3.353V18.65h9.5l16.112 28.986.186-1.118V22.727H358.2v-4.03zM95.809 86.088h1.933l-1.841-5.28h-8.949l-1.795 5.28h2.394v2.64H80v-2.64h2.026l7.246-20.628h4.527l7.23 20.628h2.332v2.64h-7.552zm-7.982-7.827h7.183l-3.622-10.406zm17.881-12.8h8.657q1.596 0 3.039.414t2.686 1.167 2.256 1.803 1.727 2.34 1.097 2.771.384 3.078q0 1.626-.384 3.115t-1.097 2.793-1.727 2.372-2.256 1.826-2.686 1.174-3.04.415h-8.656v-2.64h2.21V68.115h-2.21zm5.218 2.655v17.973h3.623q1.611 0 3.031-.706t2.479-1.927 1.672-2.869.614-3.552q0-1.873-.614-3.5t-1.674-2.832-2.477-1.895-3.032-.692zm31.265-2.655h7.552v2.655h-2.011l-7.536 20.613h-4.22l-7.428-20.613h-2.058V65.46h7.552v2.655h-2.026l5.97 17.943 6.401-17.942h-2.195zm9.44 0h7.428v2.655h-2.21v17.972h2.21v2.64h-7.428v-2.64h2.21V68.116h-2.21zm23.253 4.297q-.491-.676-1.082-1.036t-1.297-.553-1.413-.192q-1.166 0-2.04.269t-1.451.729-.867 1.074-.292 1.289q0 1.014.361 1.635t.913.998 1.22.59 1.282.43l3.1 1.014q1.397.445 2.463 1.012t1.789 1.344 1.097 1.788.376 2.348q0 1.443-.59 2.67t-1.65 2.134-2.526 1.42-3.215.514q-1.796 0-3.07-.407t-2.14-1.09-1.39-1.558-.813-1.796h-1.167v-2.64h3.868q0 1.705.361 2.41t1.005 1.174 1.535.707 1.965.238q1.043 0 1.88-.246t1.427-.714.906-1.135.314-1.512q0-.937-.392-1.59t-1.005-1.112-1.343-.752-1.404-.506l-3.36-.952q-1.107-.338-2.02-.86t-1.565-1.273-1.006-1.757-.352-2.326q0-1.336.522-2.502t1.534-2.041 2.479-1.374 3.354-.498q1.243 0 2.295.29t1.902.823 1.505 1.273 1.097 1.634h1.151v2.64h-3.76q0-1.35-.491-2.025m17.205 19.431q-2.41 0-4.405-.898t-3.561-2.556-2.38-3.929-.813-4.712q0-2.517.821-4.727t2.303-3.845 3.53-2.578 4.505-.944q2.47 0 4.527.943t3.53 2.58 2.287 3.844.814 4.727-.821 4.72-2.302 3.845-3.53 2.586-4.505.944m0-2.855q1.826 0 3.308-.752t2.524-2.018 1.612-2.939.568-3.53q0-1.904-.622-3.676t-1.734-3.001-2.586-1.896-3.07-.668q-1.827 0-3.316.752t-2.532 2.02-1.611 2.946-.568 3.522q0 2.15.628 3.83t1.666 2.793 2.471 1.865 3.261.752zm14.443-20.873h9.685q1.55 0 2.863.407t2.27 1.197 1.497 1.972.537 2.717q0 .874-.314 1.726t-.875 1.581-1.328 1.297-1.673.875q.384.169.775.484t.737.767.629 1.028.453 1.236l1.29 5.064h2.01l.03 2.917h-4.527l-1.735-7.076q-.475-1.903-1.45-2.8t-2.663-.9h-2.993v8.136h2.334v2.64h-7.552v-2.64h2.21V68.117h-2.21zm5.218 2.655v7.32h4.467q.874 0 1.604-.23t1.259-.69.828-1.143.3-1.589q0-1.734-1.044-2.701t-3.316-.967zm15.748-2.655h7.551v2.655h-2.21l4.375 7.475 4.68-7.475h-2.424V65.46h7.552v2.655h-1.98l-6.539 9.915v8.058h2.395v2.64h-7.552v-2.64h2.133v-8.134l-6.17-9.839h-1.81V65.46zm47.028 23.36v-4.666q-.583 1.213-1.458 2.11t-1.95 1.481-2.294.875-2.479.291q-2.271 0-4.19-.759t-3.476-2.418-2.379-3.929-.821-4.742q0-2.487.821-4.697t2.303-3.853 3.529-2.577 4.444-.937q2.21 0 3.798.629t2.717 1.528 1.804 1.711h1.488V71.6h-3.3q-1.028-1.75-2.724-2.763t-3.799-.982q-1.765 0-3.238.752t-2.525 2.026-1.635 2.931-.583 3.5q0 2.041.644 3.79t1.643 2.84 2.463 1.804 3.246.714q2.947 0 4.835-1.435t2.64-4.475h-6.508v-2.64h9.839V88.82zm7.873-23.36h9.685q1.55 0 2.863.407t2.271 1.197 1.496 1.972.538 2.717q0 .874-.315 1.726t-.875 1.581-1.328 1.297-1.672.875q.383.169.774.484t.738.767.628 1.028.454 1.236l1.288 5.064h2.011l.031 2.917h-4.528l-1.734-7.076q-.476-1.903-1.45-2.8t-2.664-.9h-2.993v8.136h2.334v2.64H282.4v-2.64h2.21V68.117h-2.21zm5.218 2.655v7.32h4.467q.875 0 1.604-.23t1.259-.69.828-1.143.3-1.589q0-1.734-1.044-2.701t-3.315-.967zm27.229 21.073q-2.41 0-4.405-.898t-3.561-2.556-2.38-3.929-.813-4.712q0-2.517.821-4.727t2.303-3.845 3.53-2.578 4.504-.944q2.472 0 4.528.943t3.53 2.58 2.287 3.844.814 4.727-.821 4.72-2.303 3.845-3.53 2.586-4.504.944m0-2.855q1.826 0 3.307-.752t2.525-2.018 1.611-2.939.569-3.53q0-1.904-.622-3.676t-1.734-3.001-2.587-1.896-3.069-.668q-1.827 0-3.316.752t-2.532 2.02-1.611 2.946-.568 3.522q0 2.15.628 3.83t1.666 2.793 2.47 1.865 3.262.752m13.983-20.873h7.536v2.655h-2.38v10.836q0 1.949.438 3.322t1.213 2.242 1.842 1.266 2.34.399q1.32 0 2.425-.354t1.895-1.189 1.229-2.225.437-3.461V68.115h-2.517v-2.654h7.536v2.655h-2.072v10.498q0 2.517-.7 4.467t-1.909 3.269-2.855 2.003-3.53.683q-1.842 0-3.446-.676t-2.793-1.98-1.873-3.184-.684-4.305V68.116h-2.132zm24.25 0h9.409q1.566 0 2.877.407t2.272 1.197 1.49 1.972.528 2.717q0 1.273-.521 2.401t-1.474 1.973-2.279 1.336-2.955.49h-4.128v8.135h2.333v2.64h-7.552v-2.64h2.21V68.117h-2.21zm5.219 2.655v7.32h4.19q.874 0 1.604-.236t1.259-.699.828-1.151.3-1.596q0-1.72-1.044-2.678t-3.33-.96z"/>
</svg>
